<?xml version="1.0" encoding="iso-8859-1"?>
<!-- Uploaded to: SVG Repo, www.svgrepo.com, Generator: SVG Repo Mixer Tools -->
<svg height="800px" width="800px" version="1.1" id="Layer_1" xmlns="http://www.w3.org/2000/svg" xmlns:xlink="http://www.w3.org/1999/xlink" 
	 viewBox="0 0 512 512" xml:space="preserve">
<g>
	<path style="fill:#EDEBDA;" d="M0,26.483v388.414h335.448v-64.486c14.062,12.615,32.591,20.348,52.966,20.348
		s38.903-7.733,52.966-20.348v64.486H512V26.483H0z"/>
	<path style="fill:#DD342E;" d="M467.862,291.31c0,43.882-35.566,79.448-79.448,79.448s-79.448-35.566-79.448-79.448
		c0-43.882,35.566-79.448,79.448-79.448S467.862,247.428,467.862,291.31"/>
	<path style="fill:#445793;" d="M388.414,370.759c-20.374,0-38.903-7.733-52.966-20.348v135.106l52.966-52.966l52.966,52.966
		V350.411C427.317,363.026,408.788,370.759,388.414,370.759"/>
	<g>
		<path style="fill:#CEC9AE;" d="M476.69,211.862c-4.882,0-8.828-3.946-8.828-8.828v-8.828c0-4.882,3.946-8.828,8.828-8.828
			c4.882,0,8.828,3.946,8.828,8.828v8.828C485.517,207.916,481.571,211.862,476.69,211.862"/>
		<path style="fill:#CEC9AE;" d="M476.69,151.543c-4.882,0-8.828-3.946-8.828-8.828v-20.595c0-4.882,3.946-8.828,8.828-8.828
			c4.882,0,8.828,3.946,8.828,8.828v20.595C485.517,147.597,481.571,151.543,476.69,151.543"/>
		<path style="fill:#CEC9AE;" d="M476.69,79.448c-4.882,0-8.828-3.946-8.828-8.828c-4.882,0-8.828-3.946-8.828-8.828
			s3.946-8.828,8.828-8.828h17.655v17.655C485.517,75.502,481.571,79.448,476.69,79.448"/>
		<path style="fill:#CEC9AE;" d="M107.241,70.621H89.215c-4.882,0-8.828-3.946-8.828-8.828s3.946-8.828,8.828-8.828h18.026
			c4.882,0,8.828,3.946,8.828,8.828S112.123,70.621,107.241,70.621 M170.349,70.621h-18.035c-4.873,0-8.828-3.946-8.828-8.828
			s3.955-8.828,8.828-8.828h18.035c4.882,0,8.828,3.946,8.828,8.828S175.231,70.621,170.349,70.621 M233.458,70.621h-18.026
			c-4.882,0-8.828-3.946-8.828-8.828s3.946-8.828,8.828-8.828h18.026c4.882,0,8.828,3.946,8.828,8.828S238.34,70.621,233.458,70.621
			 M296.566,70.621h-18.035c-4.873,0-8.828-3.946-8.828-8.828s3.955-8.828,8.828-8.828h18.035c4.882,0,8.828,3.946,8.828,8.828
			S301.448,70.621,296.566,70.621 M359.675,70.621h-18.026c-4.882,0-8.828-3.946-8.828-8.828s3.946-8.828,8.828-8.828h18.026
			c4.873,0,8.828,3.946,8.828,8.828S364.548,70.621,359.675,70.621 M422.783,70.621h-18.035c-4.882,0-8.828-3.946-8.828-8.828
			s3.946-8.828,8.828-8.828h18.035c4.882,0,8.828,3.946,8.828,8.828S427.665,70.621,422.783,70.621"/>
		<path style="fill:#CEC9AE;" d="M35.31,79.448c-4.882,0-8.828-3.946-8.828-8.828V52.966h17.655c4.882,0,8.828,3.946,8.828,8.828
			s-3.946,8.828-8.828,8.828C44.138,75.502,40.192,79.448,35.31,79.448"/>
		<path style="fill:#CEC9AE;" d="M35.31,143.112c-4.882,0-8.828-3.946-8.828-8.828v-18.194c0-4.873,3.946-8.828,8.828-8.828
			s8.828,3.955,8.828,8.828v18.194C44.138,139.166,40.192,143.112,35.31,143.112 M35.31,206.776c-4.882,0-8.828-3.946-8.828-8.828
			v-18.194c0-4.873,3.946-8.828,8.828-8.828s8.828,3.955,8.828,8.828v18.194C44.138,202.831,40.192,206.776,35.31,206.776
			 M35.31,270.441c-4.882,0-8.828-3.946-8.828-8.828V243.42c0-4.873,3.946-8.828,8.828-8.828s8.828,3.955,8.828,8.828v18.194
			C44.138,266.495,40.192,270.441,35.31,270.441 M35.31,334.114c-4.882,0-8.828-3.955-8.828-8.828v-18.194
			c0-4.882,3.946-8.828,8.828-8.828s8.828,3.946,8.828,8.828v18.194C44.138,330.16,40.192,334.114,35.31,334.114"/>
		<path style="fill:#CEC9AE;" d="M44.138,388.414H26.483v-17.655c0-4.882,3.946-8.828,8.828-8.828s8.828,3.946,8.828,8.828
			c4.882,0,8.828,3.946,8.828,8.828S49.02,388.414,44.138,388.414"/>
		<path style="fill:#CEC9AE;" d="M105.931,388.414H88.276c-4.882,0-8.828-3.946-8.828-8.828s3.946-8.828,8.828-8.828h17.655
			c4.882,0,8.828,3.946,8.828,8.828S110.813,388.414,105.931,388.414 M167.724,388.414h-17.655c-4.882,0-8.828-3.946-8.828-8.828
			s3.946-8.828,8.828-8.828h17.655c4.882,0,8.828,3.946,8.828,8.828S172.606,388.414,167.724,388.414 M229.517,388.414h-17.655
			c-4.882,0-8.828-3.946-8.828-8.828s3.946-8.828,8.828-8.828h17.655c4.882,0,8.828,3.946,8.828,8.828
			S234.399,388.414,229.517,388.414"/>
		<path style="fill:#CEC9AE;" d="M282.483,388.414h-8.828c-4.882,0-8.828-3.946-8.828-8.828s3.946-8.828,8.828-8.828h8.828
			c4.882,0,8.828,3.946,8.828,8.828S287.364,388.414,282.483,388.414"/>
		<path style="fill:#CEC9AE;" d="M406.069,150.069H105.931c-4.882,0-8.828-3.946-8.828-8.828c0-4.882,3.946-8.828,8.828-8.828
			h300.138c4.882,0,8.828,3.946,8.828,8.828C414.897,146.123,410.951,150.069,406.069,150.069"/>
		<path style="fill:#CEC9AE;" d="M300.138,203.035H105.931c-4.882,0-8.828-3.946-8.828-8.828c0-4.882,3.946-8.828,8.828-8.828
			h194.207c4.882,0,8.828,3.946,8.828,8.828C308.966,199.089,305.02,203.035,300.138,203.035"/>
		<path style="fill:#CEC9AE;" d="M273.655,256H105.931c-4.882,0-8.828-3.946-8.828-8.828c0-4.882,3.946-8.828,8.828-8.828h167.724
			c4.882,0,8.828,3.946,8.828,8.828C282.483,252.054,278.537,256,273.655,256"/>
		<path style="fill:#CEC9AE;" d="M273.655,317.793H105.931c-4.882,0-8.828-3.946-8.828-8.828s3.946-8.828,8.828-8.828h167.724
			c4.882,0,8.828,3.946,8.828,8.828S278.537,317.793,273.655,317.793"/>
	</g>
</g>
</svg>