<?xml version="1.0" encoding="iso-8859-1"?>
<!-- Uploaded to: SVG Repo, www.svgrepo.com, Generator: SVG Repo Mixer Tools -->
<svg version="1.1" id="Layer_1" xmlns="http://www.w3.org/2000/svg" xmlns:xlink="http://www.w3.org/1999/xlink" 
	 viewBox="0 0 512 512" xml:space="preserve">
<polygon style="fill:#B4B4B4;" points="109.04,180.588 79.183,180.588 58.285,299.018 79.183,417.448 109.04,417.448 "/>
<rect x="49.33" y="180.588" style="fill:#E0E0E0;" width="29.857" height="236.857"/>
<polygon style="fill:#B4B4B4;" points="226.918,180.588 197.061,180.588 176.164,299.018 197.061,417.448 226.918,417.448 "/>
<rect x="167.205" y="180.588" style="fill:#E0E0E0;" width="29.857" height="236.857"/>
<polygon style="fill:#B4B4B4;" points="344.795,180.588 314.939,180.588 294.041,299.018 314.939,417.448 344.795,417.448 "/>
<rect x="285.079" y="180.588" style="fill:#E0E0E0;" width="29.857" height="236.857"/>
<polygon style="fill:#B4B4B4;" points="462.673,180.588 432.817,180.588 411.919,299.018 432.817,417.448 462.673,417.448 "/>
<rect x="402.954" y="180.588" style="fill:#E0E0E0;" width="29.857" height="236.857"/>
<polygon style="fill:#B4B4B4;" points="256,14.567 235.102,121.504 468.641,100.606 "/>
<polygon style="fill:#E0E0E0;" points="43.359,100.606 256,121.504 256,14.567 "/>
<polygon style="fill:#424242;" points="478.843,468.638 478.843,395.048 256,395.048 235.102,468.638 "/>
<g>
	<rect x="33.157" y="395.043" style="fill:#707070;" width="222.845" height="73.592"/>
	<polygon style="fill:#707070;" points="512,497.429 512,439.847 256,439.847 235.102,468.638 256,497.429 	"/>
</g>
<rect y="439.848" style="fill:#B4B4B4;" width="256" height="57.584"/>
<polygon style="fill:#424242;" points="478.843,129.398 235.102,129.398 256,202.988 478.843,202.988 "/>
<g>
	<rect x="33.157" y="129.399" style="fill:#707070;" width="222.845" height="73.592"/>
	<polygon style="fill:#707070;" points="512,158.189 512,100.606 256,100.606 235.102,129.398 256,158.189 	"/>
</g>
<rect y="100.601" style="fill:#B4B4B4;" width="256" height="57.584"/>
</svg>